<?xml version="1.0" encoding="UTF-8"?>
<svg id="Layer_1" data-name="Layer 1" xmlns="http://www.w3.org/2000/svg" viewBox="0 0 512 512">
  <defs>
    <style>
      .cls-1 {
        fill: #3f3f3f;
      }

      .cls-2 {
        fill: silver;
      }

      .cls-3 {
        fill: #7f00ff;
      }

      .cls-4 {
        fill: blue;
      }

      .cls-5 {
        fill: #ff7f00;
      }

      .cls-6 {
        fill: red;
      }
    </style>
  </defs>
  <circle class="cls-1" cx="276" cy="265.94" r="230.69"/>
  <circle class="cls-2" cx="256" cy="245.94" r="230.69"/>
  <g>
    <path class="cls-6" d="M305.95,49.67c-1.92-2.75-13.46-1.22-22.47-.09-2.26,.46-3.95,.34-4.36-.33-.62-1.01,.88-3.08,5.82-6.34,7.94-3.25,15.69-5.69,22.1-7.31,4.35-.82,5.91-.16,6.94,1.52,.82,1.34,1.25,3.17,2.79,5.68l37.49,61.15,8.4-5.15c7.17-6.02,2.53-7.56,13.28-14.15,3.19-1.96,10.25-6.28,13.44-1.07,1.44,2.35,.66,5.6-3.03,7.87l-29.06,17.82,29.7,48.82c6.53,11.02,9.57,18.63,11.04,27.44-.11,2.84-.83,4.67-2.01,5.39-1.51,.93-3.86-.64-7.26-6.18L305.95,49.67Z"/>
    <path class="cls-4" d="M447.94,197.38c7.87-4.71,7.93-22.99,6.53-39.18-1.48-8.32-1.14-13.29,.88-14.38,1.68-.91,4.84,1.71,9.16,8.06,10.14,21.86,11.09,34.82,14.12,48.38,.6,7.5-.69,9.93-3.04,11.21-2.35,1.28-5.76,1.39-10.12,3.76l-225.64,122.14c-32.54,17.68-65.62,29.57-70.54,20.51-2.19-4.03,1.42-8.59,19.99-19.99l74.82-40.64c-51.23-49.51-109.34-120.49-121.22-138.37-7.79-7.94-12.54-7.09-15.64-12.79-4.01-7.38-8.28-57.64-3.25-60.37,1.34-.73,2.74,.25,4.38,3.27,.91,1.68,1.67,3.87,2.61,6.4,2.33,8.29,6.97,19.24,13.35,30.98,29.89,55.02,96.6,137.83,126.48,167.23l177.14-96.23Z"/>
    <path class="cls-5" d="M263.61,84.32l1.6,17.2c6.13,.65,11.92,3.32,17.34,8.02,5.43,4.69,10.24,11.14,14.43,19.34s6.45,15.56,7.09,22.68c.64,7.12-.61,13.47-3.74,19.05-3.13,5.58-8.09,10.11-14.89,13.59-4.08,2.09-8.08,3.4-11.99,3.93l1.3,13.64-6.96,3.56-1.6-17.05c-6.09-.67-11.85-3.33-17.25-7.99-5.41-4.66-10.24-11.14-14.49-19.47-4.09-8-6.45-15.56-7.09-22.68-.64-7.12,.61-13.47,3.74-19.05,3.13-5.58,8.09-10.11,14.89-13.59,4.12-2.11,8.1-3.41,11.93-3.9l-1.27-13.73,6.96-3.56Zm1.51,93.01l-6.25-65.84c-3.15,.25-6.23,1.14-9.23,2.67-6.88,3.52-10.75,8.78-11.62,15.78-.86,7,1.3,15.58,6.5,25.74,6.03,11.8,12.9,19.02,20.6,21.64Zm1.15-64.85l6.22,65.78c3.03-.19,6.11-1.08,9.23-2.67,6.88-3.52,10.76-8.79,11.63-15.82,.87-7.03-1.28-15.61-6.45-25.73-5.99-11.72-12.87-18.91-20.63-21.55Z"/>
    <path class="cls-3" d="M413.07,496.75l-127.16-138.71,9.52-8.73c18.53-16.98,42.56-25.74,67.66-24.65,25.11,1.09,48.29,11.89,65.27,30.42,35.06,38.24,32.47,97.88-5.77,132.94l-9.52,8.73Zm-89.84-136.23l90.6,98.83c8.1-10.86,12.76-23.89,13.36-37.72,.79-18.21-5.56-35.65-17.88-49.08-12.32-13.44-29.14-21.27-47.35-22.07-13.83-.6-27.22,2.92-38.74,10.04Z"/>
    <path class="cls-3" d="M47.97,429.41l-5.56-11.66c-22.35-46.82-2.43-103.09,44.39-125.44,22.68-10.83,48.22-12.16,71.91-3.79,23.69,8.38,42.7,25.49,53.53,48.18l5.56,11.66L47.97,429.41Zm98.64-117.66c-16.19-4.79-33.34-3.45-48.69,3.87-29.98,14.31-44.75,47.79-36.66,78.81l120.99-57.74c-8.02-10.92-19.12-19.19-32.17-23.81-1.15-.41-2.31-.78-3.48-1.13Z"/>
  </g>
</svg>